<?xml version="1.0" encoding="utf-8"?>
<!-- Generator: Adobe Illustrator 18.1.0, SVG Export Plug-In . SVG Version: 6.00 Build 0)  -->
<svg version="1.1" id="Layer_1" xmlns="http://www.w3.org/2000/svg" xmlns:xlink="http://www.w3.org/1999/xlink" x="0px" y="0px"
	 viewBox="0 0 595.3 841.9" enable-background="new 0 0 595.3 841.9" xml:space="preserve">
<g>
	<path fill="#333333" d="M423.9,442.1c-30.8,34.3-73.1,53.7-118.8,56c-86.8,4.6-160-56-176-138.3c-8-3.4-16-6.9-25.1-10.3
		c11.4,97.1,93.7,171.4,192,171.4c3.4,0,5.7,0,9.1,0c51.4-2.3,99.4-25.1,134.8-62.8c17.1-18.3,29.7-40,38.8-64
		c-5.7-4.6-12.6-8-20.6-11.4C452.5,404.4,439.9,424.9,423.9,442.1z"/>
	<path fill="#333333" d="M302.8,445.5c-50.3,2.3-93.7-26.3-113.1-68.6c-8-1.1-17.1-3.4-27.4-6.9c18.3,57.1,72,98.3,134.8,98.3
		c2.3,0,4.6,0,6.9,0c59.4-2.3,108.5-42.3,128-96C425,371.2,417,369,409,369C391.9,412.4,351.9,443.2,302.8,445.5z"/>
	<path fill="#333333" d="M291.4,207.9c2.3,0,3.4,0,5.7,0c43.4,0,81.1,22.9,101.7,57.1c9.1,0,18.3,1.1,27.4,2.3
		c-24-50.3-75.4-84.6-136-82.3c-53.7,2.3-99.4,35.4-121.1,81.1c6.9,2.3,14.9,4.6,22.9,6.9C210.2,236.4,247.9,210.1,291.4,207.9z"/>
	<path fill="#333333" d="M503.9,426.1c-1.1-2.3-1.1-3.4-2.3-5.7c-9.1,20.6-21.7,40-37.7,57.1c-41.1,45.7-96,70.8-155.4,74.3
		c-125.7,5.7-229.7-90.3-235.4-213.7c0-1.1,0-3.4,0-4.6c-8-4.6-16-10.3-22.9-16c0,6.9,0,13.7,0,21.7
		C56,470.6,164.5,574.6,297.1,574.6c3.4,0,8,0,11.4,0c66.3-3.4,126.8-32,171.4-81.1c9.1-10.3,18.3-21.7,26.3-34.3
		C508.4,448.9,508.4,437.5,503.9,426.1z"/>
	<path fill="#333333" d="M545,315.3L545,315.3L545,315.3c-6.9-6.9-16-12.6-25.1-17.1"/>
	<path fill="#333333" d="M595.3,315.3C587.3,151.9,449,23.9,283.4,31.9c-75.4,3.4-144,35.4-197.7,89.1l0,0c0,0-2.3,2.3-3.4,3.4l0,0
		c-28.6,30.8-36.6,70.8-20.6,106.3c26.3,64,116.5,101.7,241.1,101.7c116.5,0,196.5,26.3,220.5,73.1c14.9,28.6,12.6,69.7-21.7,108.5
		c-49.1,54.8-117.7,86.8-190.8,90.3C157.7,611.2,30.8,493.5,22.9,342.7c-1.1-16,0-33.1,2.3-49.1c-6.9-8-13.7-16-19.4-25.1
		c-4.6,24-6.9,49.1-5.7,75.4c8,158.8,138.3,283.4,297.1,283.4c4.6,0,9.1,0,13.7,0c77.7-3.4,150.8-37.7,203.4-94.8
		c53.7-53.7,42.3-112,28.6-138.3c-28.6-54.8-114.3-85.7-241.1-85.7c-114.3,0-196.5-33.1-219.4-88c-11.4-27.4-5.7-56,16-81.1
		C147.4,89,212.5,58.2,284.5,54.8c4.6,0,9.1,0,13.7,0c147.4,0,267.4,115.4,274.2,261.6c0,8,0,17.1,0,25.1
		c9.1,10.3,14.9,21.7,20.6,30.8C595.3,354.1,596.4,334.7,595.3,315.3z"/>
	<g>
		<path fill="#333333" d="M287.9,133.6c-51.4,2.3-99.4,25.1-134.8,62.8c-12.6,13.7-21.7,27.4-29.7,43.4c5.7,4.6,11.4,9.1,19.4,13.7
			c26.3-54.8,81.1-94.8,146.2-97.1c2.3,0,5.7,0,8,0c75.4,0,140.5,49.1,162.2,117.7c9.1,2.3,18.3,4.6,26.3,8
			C465,193,382.8,129,287.9,133.6z"/>
		<path fill="#333333" d="M285.6,79.9C210.2,83.3,144,121,100.5,177c-1.1,9.1,0,19.4,4.6,29.7c0,1.1,1.1,2.3,1.1,2.3
			c6.9-11.4,14.9-22.9,25.1-33.1c40-44.6,96-70.8,155.4-73.1c3.4,0,6.9,0,10.3,0c114.3,0,207.9,84.6,222.8,196.5
			c9.1,5.7,17.1,11.4,24,17.1C538.2,179.3,422.8,73,285.6,79.9z"/>
	</g>
</g>
<g>
	<path fill="#333333" d="M26.2,740.2h9.9l26,69.8H51l-6-17.6H16.6L10.3,810H-0.5L26.2,740.2z M42.5,784.7l-9.3-27l-2-6.3l-2,6.3
		l-9.9,27H42.5z"/>
	<path fill="#333333" d="M115.1,784.4c-3.3,1.1-6.5,1.6-9.4,1.6c-3,0-6.7,0-11.1,0v24H84.3v-69.8h4.8c2.7,0,5.3,0,8.1,0s5.8,0,9.2,0
		c3.4,0,6.6,0.4,9.6,1.3c3,0.9,5.6,2.2,7.7,4c4.3,3.8,6.5,9.4,6.5,16.9c0,7.5-2.3,13.3-6.8,17.4
		C121.2,781.8,118.4,783.3,115.1,784.4z M120.1,762.7c0-5.9-1.4-10.1-4.3-12.4c-2.8-2.3-6.5-3.5-11.1-3.5c-4.5,0-7.9,0.3-10.2,0.9
		v30.4c2.2,0.3,4.8,0.5,7.6,0.5c2.8,0,5.2-0.2,7.3-0.6c2.1-0.4,3.9-1.2,5.4-2.4C118.3,772.9,120.1,768.6,120.1,762.7z"/>
	<path fill="#333333" d="M173.7,740.2h9.9l26,69.8h-11l-6-17.6h-28.5l-6.2,17.6H147L173.7,740.2z M190,784.7l-9.3-27l-2-6.3l-2,6.3
		l-9.9,27H190z"/>
	<path fill="#333333" d="M266.7,750.4c-3.9-2.7-8.9-4.1-14.9-4.1c-4.1,0-7.7,0.9-10.6,2.6c-2.9,1.7-4.4,4.2-4.4,7.6s1.3,6.2,4,8.6
		c1.9,1.8,4.9,3.6,8.9,5.5c4,1.9,7.2,3.4,9.5,4.7c8.4,4.5,12.6,10.1,12.6,16.8c0,5.8-2.1,10.3-6.2,13.4c-4.2,3.1-9.5,4.6-16.2,4.6
		c-6.6,0-12.4-0.9-17.4-2.7c-1.3-0.5-2.2-0.9-2.9-1.4l1.9-6.2c3,1.9,7.2,3.2,12.4,3.9c1.7,0.2,3.5,0.3,5.6,0.3c4.6,0,8.3-0.9,11-2.8
		s4.2-4.6,4.2-8.2c0-3.6-1.6-6.6-4.7-9c-2.1-1.6-5.2-3.3-9.3-5.1c-4.1-1.8-7.2-3.4-9.4-4.7c-2.2-1.3-4.1-2.8-5.8-4.5
		c-3.8-3.7-5.7-7.9-5.7-12.5c0-7.6,4-12.7,12-15.3c3.2-1.1,6.4-1.6,9.3-1.6c7.9,0,13.8,1.3,17.7,3.8L266.7,750.4z"/>
	<path fill="#333333" d="M302.4,740.2h11l15.4,45.3l3.4,13.1l3.3-13.1l14.6-45.3h10.4l9,69.8h-7.8l-4.9-43.4l-2-20.6l-5.7,20.4
		L334.5,810h-4.3l-15.5-43.6l-6.2-20.4l-1.7,20.6l-4.2,43.4H295L302.4,740.2z"/>
	<path fill="#333333" d="M417.3,740.2h7.6l26.3,69.8h-8.4l-6.7-19.2h-30.5l-7,19.2h-8.2L417.3,740.2z M434.1,785l-11.2-30.9
		l-1.7-5.3l-1.7,5.4L407.7,785H434.1z"/>
	<path fill="#333333" d="M496.4,779.6c-2.4,0-4.7,0-7,0c-2.3,0-4.7,0-7.1,0V810h-7.7v-69.8h2.1h2.5c2.2,0,4.7,0,7.6,0
		c2.9,0,5.8,0,8.9,0c15.9,0,23.9,6.3,23.9,18.9c0,7.6-2.8,13.2-8.3,16.7c-1.7,1.1-3.7,1.9-5.8,2.5c2.9,1.8,5.9,5.8,9,11.9
		c1.2,2.4,2.5,5.1,4,8.3c1.5,3.1,2.5,5.3,3.1,6.4c0.6,1.1,1.2,2.1,1.6,2.9c0.4,0.8,0.9,1.5,1.3,2.2h-8.8c-1-1.4-2.2-3.7-3.6-7
		c-1.4-3.2-2.5-5.8-3.3-7.6c-2.1-4.6-3.9-8-5.4-10.2C501,782.1,498.7,780.2,496.4,779.6z M507.4,748.8c-1.4-1.1-3.2-1.9-5.4-2.4
		c-2.2-0.5-5.3-0.8-9.4-0.8c-4.1,0-7.6,0.3-10.4,0.8v27.6c1.6,0.1,4.1,0.2,7.2,0.2h5.8c7.7,0,12.8-2.8,15.1-8.3
		c0.8-1.9,1.2-4.1,1.2-6.5s-0.3-4.6-1-6.3C509.9,751.3,508.8,749.9,507.4,748.8z"/>
	<path fill="#333333" d="M565.1,746.2h-22.5v-6h53.2v6h-22.8V810h-7.8V746.2z"/>
</g>
</svg>
