<?xml version="1.0" encoding="utf-8"?>
<!-- Generator: Adobe Illustrator 18.1.0, SVG Export Plug-In . SVG Version: 6.00 Build 0)  -->
<svg version="1.1" id="Layer_1" xmlns="http://www.w3.org/2000/svg" xmlns:xlink="http://www.w3.org/1999/xlink" x="0px" y="0px"
	 viewBox="0 0 228.6 52.1" enable-background="new 0 0 228.6 52.1" xml:space="preserve">
<g>
	<path fill="#333333" d="M37.1,35.9c-2.7,3-6.4,4.7-10.4,4.9c-7.6,0.4-14-4.9-15.4-12.1c-0.7-0.3-1.4-0.6-2.2-0.9
		c1,8.5,8.2,15,16.8,15c0.3,0,0.5,0,0.8,0c4.5-0.2,8.7-2.2,11.8-5.5c1.5-1.6,2.6-3.5,3.4-5.6c-0.5-0.4-1.1-0.7-1.8-1
		C39.6,32.6,38.5,34.4,37.1,35.9z"/>
	<path fill="#333333" d="M26.5,36.2c-4.4,0.2-8.2-2.3-9.9-6c-0.7-0.1-1.5-0.3-2.4-0.6c1.6,5,6.3,8.6,11.8,8.6c0.2,0,0.4,0,0.6,0
		c5.2-0.2,9.5-3.7,11.2-8.4c-0.6-0.1-1.3-0.3-2-0.3C34.3,33.3,30.8,36,26.5,36.2z"/>
	<path fill="#333333" d="M25.5,15.4c0.2,0,0.3,0,0.5,0c3.8,0,7.1,2,8.9,5c0.8,0,1.6,0.1,2.4,0.2c-2.1-4.4-6.6-7.4-11.9-7.2
		c-4.7,0.2-8.7,3.1-10.6,7.1c0.6,0.2,1.3,0.4,2,0.6C18.4,17.9,21.7,15.6,25.5,15.4z"/>
	<path fill="#333333" d="M44.1,34.5c-0.1-0.2-0.1-0.3-0.2-0.5c-0.8,1.8-1.9,3.5-3.3,5C37,43,32.2,45.2,27,45.5
		C16,46,6.9,37.6,6.4,26.8c0-0.1,0-0.3,0-0.4c-0.7-0.4-1.4-0.9-2-1.4c0,0.6,0,1.2,0,1.9C4.9,38.4,14.4,47.5,26,47.5c0.3,0,0.7,0,1,0
		c5.8-0.3,11.1-2.8,15-7.1c0.8-0.9,1.6-1.9,2.3-3C44.5,36.5,44.5,35.5,44.1,34.5z"/>
	<path fill="#333333" d="M47.7,24.8C47.7,24.8,47.7,24.8,47.7,24.8C47.7,24.8,47.7,24.8,47.7,24.8c-0.6-0.6-1.4-1.1-2.2-1.5"/>
	<path fill="#333333" d="M52.1,24.8C51.4,10.5,39.3-0.7,24.8,0C18.2,0.3,12.2,3.1,7.5,7.8l0,0c0,0-0.2,0.2-0.3,0.3l0,0
		c-2.5,2.7-3.2,6.2-1.8,9.3c2.3,5.6,10.2,8.9,21.1,8.9c10.2,0,17.2,2.3,19.3,6.4c1.3,2.5,1.1,6.1-1.9,9.5
		c-4.3,4.8-10.3,7.6-16.7,7.9C13.8,50.7,2.7,40.4,2,27.2c-0.1-1.4,0-2.9,0.2-4.3c-0.6-0.7-1.2-1.4-1.7-2.2c-0.4,2.1-0.6,4.3-0.5,6.6
		c0.7,13.9,12.1,24.8,26,24.8c0.4,0,0.8,0,1.2,0c6.8-0.3,13.2-3.3,17.8-8.3c4.7-4.7,3.7-9.8,2.5-12.1c-2.5-4.8-10-7.5-21.1-7.5
		c-10,0-17.2-2.9-19.2-7.7c-1-2.4-0.5-4.9,1.4-7.1C12.9,5,18.6,2.3,24.9,2c0.4,0,0.8,0,1.2,0c12.9,0,23.4,10.1,24,22.9
		c0,0.7,0,1.5,0,2.2c0.8,0.9,1.3,1.9,1.8,2.7C52.1,28.2,52.2,26.5,52.1,24.8z"/>
	<g>
		<path fill="#333333" d="M25.2,8.9c-4.5,0.2-8.7,2.2-11.8,5.5c-1.1,1.2-1.9,2.4-2.6,3.8c0.5,0.4,1,0.8,1.7,1.2
			c2.3-4.8,7.1-8.3,12.8-8.5c0.2,0,0.5,0,0.7,0c6.6,0,12.3,4.3,14.2,10.3c0.8,0.2,1.6,0.4,2.3,0.7C40.7,14.1,33.5,8.5,25.2,8.9z"/>
		<path fill="#333333" d="M25,4.2c-6.6,0.3-12.4,3.6-16.2,8.5c-0.1,0.8,0,1.7,0.4,2.6c0,0.1,0.1,0.2,0.1,0.2c0.6-1,1.3-2,2.2-2.9
			c3.5-3.9,8.4-6.2,13.6-6.4c0.3,0,0.6,0,0.9,0c10,0,18.2,7.4,19.5,17.2c0.8,0.5,1.5,1,2.1,1.5C47.1,12.9,37,3.6,25,4.2z"/>
	</g>
</g>
<g>
	<path fill="#333333" d="M70.9,15.1h2.7l7.2,19.3h-3.1l-1.7-4.9h-7.9l-1.7,4.9h-3L70.9,15.1z M75.4,27.5L72.8,20l-0.5-1.7L71.7,20
		l-2.7,7.5H75.4z"/>
	<path fill="#333333" d="M95.5,27.4c-0.9,0.3-1.8,0.4-2.6,0.4s-1.8,0-3.1,0v6.7H87V15.1h1.3c0.7,0,1.5,0,2.2,0s1.6,0,2.6,0
		s1.8,0.1,2.7,0.4c0.8,0.2,1.5,0.6,2.1,1.1c1.2,1,1.8,2.6,1.8,4.7c0,2.1-0.6,3.7-1.9,4.8C97.2,26.6,96.4,27.1,95.5,27.4z M96.9,21.3
		c0-1.6-0.4-2.8-1.2-3.4s-1.8-1-3.1-1c-1.3,0-2.2,0.1-2.8,0.2v8.4c0.6,0.1,1.3,0.1,2.1,0.1s1.5-0.1,2-0.2c0.6-0.1,1.1-0.3,1.5-0.7
		C96.4,24.2,96.9,23,96.9,21.3z"/>
	<path fill="#333333" d="M111.7,15.1h2.7l7.2,19.3h-3.1l-1.7-4.9H109l-1.7,4.9h-3L111.7,15.1z M116.2,27.5l-2.6-7.5l-0.5-1.7
		l-0.6,1.7l-2.7,7.5H116.2z"/>
	<path fill="#333333" d="M137.5,17.9c-1.1-0.8-2.5-1.1-4.1-1.1c-1.1,0-2.1,0.2-2.9,0.7c-0.8,0.5-1.2,1.2-1.2,2.1s0.4,1.7,1.1,2.4
		c0.5,0.5,1.4,1,2.5,1.5c1.1,0.5,2,1,2.6,1.3c2.3,1.2,3.5,2.8,3.5,4.7c0,1.6-0.6,2.9-1.7,3.7c-1.2,0.9-2.6,1.3-4.5,1.3
		c-1.8,0-3.4-0.3-4.8-0.8c-0.4-0.1-0.6-0.3-0.8-0.4l0.5-1.7c0.8,0.5,2,0.9,3.4,1.1c0.5,0.1,1,0.1,1.5,0.1c1.3,0,2.3-0.3,3.1-0.8
		c0.8-0.5,1.2-1.3,1.2-2.3c0-1-0.4-1.8-1.3-2.5c-0.6-0.4-1.4-0.9-2.6-1.4c-1.1-0.5-2-0.9-2.6-1.3c-0.6-0.4-1.1-0.8-1.6-1.2
		c-1.1-1-1.6-2.2-1.6-3.5c0-2.1,1.1-3.5,3.3-4.2c0.9-0.3,1.8-0.4,2.6-0.4c2.2,0,3.8,0.3,4.9,1L137.5,17.9z"/>
	<path fill="#333333" d="M147.4,15.1h3l4.3,12.6l1,3.6l0.9-3.6l4-12.6h2.9l2.5,19.3h-2.2l-1.3-12l-0.6-5.7l-1.6,5.7l-4.1,12.1h-1.2
		l-4.3-12.1l-1.7-5.7l-0.5,5.7l-1.2,12h-2.1L147.4,15.1z"/>
	<path fill="#333333" d="M179.2,15.1h2.1l7.3,19.3h-2.3l-1.9-5.3h-8.4l-1.9,5.3h-2.3L179.2,15.1z M183.8,27.5l-3.1-8.5l-0.5-1.5
		l-0.5,1.5l-3.2,8.5H183.8z"/>
	<path fill="#333333" d="M201.1,26c-0.7,0-1.3,0-1.9,0c-0.6,0-1.3,0-2,0v8.4H195V15.1h0.6h0.7c0.6,0,1.3,0,2.1,0c0.8,0,1.6,0,2.5,0
		c4.4,0,6.6,1.7,6.6,5.2c0,2.1-0.8,3.6-2.3,4.6c-0.5,0.3-1,0.5-1.6,0.7c0.8,0.5,1.6,1.6,2.5,3.3c0.3,0.7,0.7,1.4,1.1,2.3
		c0.4,0.9,0.7,1.5,0.9,1.8c0.2,0.3,0.3,0.6,0.4,0.8s0.2,0.4,0.4,0.6h-2.4c-0.3-0.4-0.6-1-1-1.9c-0.4-0.9-0.7-1.6-0.9-2.1
		c-0.6-1.3-1.1-2.2-1.5-2.8C202.4,26.7,201.8,26.2,201.1,26z M204.2,17.5c-0.4-0.3-0.9-0.5-1.5-0.7s-1.5-0.2-2.6-0.2
		c-1.1,0-2.1,0.1-2.9,0.2v7.6c0.5,0,1.1,0.1,2,0.1h1.6c2.1,0,3.5-0.8,4.2-2.3c0.2-0.5,0.3-1.1,0.3-1.8s-0.1-1.3-0.3-1.8
		C204.8,18.2,204.6,17.8,204.2,17.5z"/>
	<path fill="#333333" d="M220.1,16.8h-6.2v-1.7h14.7v1.7h-6.3v17.7h-2.2V16.8z"/>
</g>
</svg>
